<?xml version="1.0" encoding="UTF-8" standalone="no"?>
<!-- Created with Inkscape (http://www.inkscape.org/) -->

<svg
   xmlns:dc="http://purl.org/dc/elements/1.1/"
   xmlns:cc="http://creativecommons.org/ns#"
   xmlns:rdf="http://www.w3.org/1999/02/22-rdf-syntax-ns#"
   xmlns:svg="http://www.w3.org/2000/svg"
   xmlns="http://www.w3.org/2000/svg"
   xmlns:sodipodi="http://sodipodi.sourceforge.net/DTD/sodipodi-0.dtd"
   xmlns:inkscape="http://www.inkscape.org/namespaces/inkscape"
   width="1920"
   height="800"
   version="1.1"
   id="svg1130"
   sodipodi:docname="绘图.svg"
   inkscape:version="0.92.4 (5da689c313, 2019-01-14)">
  <metadata
     id="metadata1136">
    <rdf:RDF>
      <cc:Work
         rdf:about="">
        <dc:format>image/svg+xml</dc:format>
        <dc:type
           rdf:resource="http://purl.org/dc/dcmitype/StillImage" />
      </cc:Work>
    </rdf:RDF>
  </metadata>
  <defs
     id="defs1134" />
  <sodipodi:namedview
     pagecolor="#ffffff"
     bordercolor="#666666"
     borderopacity="1"
     objecttolerance="10"
     gridtolerance="10"
     guidetolerance="10"
     inkscape:pageopacity="0"
     inkscape:pageshadow="2"
     inkscape:window-width="1366"
     inkscape:window-height="705"
     id="namedview1132"
     showgrid="false"
     inkscape:zoom="1.2614583"
     inkscape:cx="347.18067"
     inkscape:cy="465.62153"
     inkscape:window-x="-8"
     inkscape:window-y="-8"
     inkscape:window-maximized="1"
     inkscape:current-layer="svg1130" />
  <g
     stroke="#979797"
     fill="none"
     id="g604">
    <path
       d="m 212,453 -81,-88 m 81,88 47,-88 -77,-55"
       style="stroke-dashoffset:622px"
       id="path574"
       inkscape:connector-curvature="0"
       sodipodi:nodetypes="ccccc" />
    <path
       d="M 548,556 730,453 m -182,103 -9,161 m 9,-161 933,183 65,-195 m -998,12 46,112 M 297,536 v 0 m 0,0 -3,233 m 3,-233 v 0 m 0,0 -233,63 -42,38"
       style="stroke-dashoffset:622px"
       id="path578"
       inkscape:connector-curvature="0"
       sodipodi:nodetypes="cccccccccccccccccc" />
    <path
       d="M297 536L50 683m247-147l40 181"
       style="stroke-dashoffset: 622px;"
       id="path580" />
    <path
       d="M175 249l84 116m-129 0l45-116m283.5 204L376 362m-.5-2l42-51M374 361l-12-92m96.5 184L621 367l17-61"
       style="stroke-dashoffset: 622px;"
       id="path584" />
    <path
       d="M457 453l85-144"
       style="stroke-dashoffset: 622px;"
       id="path586" />
    <path
       d="M457 453l79-198m194 198l62-79-15-120m16 120l107-68m-44-110l-63 177m0 0l-53 200m321-120l47-94"
       style="stroke-dashoffset: 622px;"
       id="path588" />
    <path
       d="M1061 453l-48 103M730 453l283 103m48-103l98 115m-98-115v156"
       style="stroke-dashoffset: 622px;"
       id="path590" />
    <path
       d="M1061 453l66 302m-66-302L925 602l-72-68-60-160"
       style="stroke-dashoffset: 622px;"
       id="path592" />
    <path
       d="M1061 453L746 692 297 536m764-83l-29 226m29-226l-70 317m70-317l18-151m151 151l89 113 52 63-76 60-108-62-28-59zm330 0l-14 91-78 47m78-47l48 53m-48-53l-19 114"
       style="stroke-dashoffset: 622px;"
       id="path594" />
    <path
       d="m 1546,544 86,148 m -72,-239 66,-111 20,-91 m -86,202 -66,-89 29,-79 m -29,79 -80,-122 M 1061,453 900,676 m -154,16 103,55 m -226,0 85,43 M 623,747 H 849 M 297,536 v 0"
       style="stroke-dashoffset:622px"
       id="path596"
       inkscape:connector-curvature="0"
       sodipodi:nodetypes="cccccccccccccccccccc" />
    <path
       d="M297 536l-95 121m1557-204l-34 87 99 38.5z"
       style="stroke-dashoffset: 622px;"
       id="path598" />
    <path
       d="M1824 579l-54 71-11-197"
       style="stroke-dashoffset: 622px;"
       id="path600" />
    <path
       d="M1061 453l709 197M297 536l326 211"
       style="stroke-dashoffset: 622px;"
       id="path602" />
    <path
       style="fill:none;fill-rule:evenodd;stroke:#000000;stroke-width:1px;stroke-linecap:butt;stroke-linejoin:miter;stroke-opacity:1"
       d="m 212,453 85,83"
       id="path1187"
       inkscape:connector-type="polyline"
       inkscape:connector-curvature="0" />
    <path
       style="fill:none;fill-rule:evenodd;stroke:#000000;stroke-width:1px;stroke-linecap:butt;stroke-linejoin:miter;stroke-opacity:1"
       d="M 212,453 H 457"
       id="path1189"
       inkscape:connector-type="polyline"
       inkscape:connector-curvature="0" />
  </g>
  <g
     fill="#404040"
     id="g1128">
    <text
       id="text608"
       x="-2.3781998"
       y="-13.872832">
      <tspan
         x="223.6218"
         y="445.12717"
         id="tspan606">网站前端</tspan>
    </text>
    <ellipse
       cx="212"
       cy="453"
       id="circle610"
       r="4" />
    <text
       id="text614">
      <tspan
         x="744"
         y="459"
         id="tspan612">人工智能</tspan>
    </text>
    <circle
       cx="730"
       cy="453"
       r="4"
       id="circle616" />
    <text
       id="text620">
      <tspan
         x="1075"
         y="459"
         id="tspan618">iOS</tspan>
    </text>
    <circle
       cx="1061"
       cy="453"
       r="4"
       id="circle622" />
    <text
       id="text626">
      <tspan
         x="471"
         y="459"
         id="tspan624">服务器</tspan>
    </text>
    <circle
       cx="457"
       cy="453"
       r="4"
       id="circle628" />
    <text
       id="text632">
      <tspan
         x="1772"
         y="459"
         id="tspan630">AR/VR</tspan>
    </text>
    <circle
       cx="1758"
       cy="453"
       r="4"
       id="circle634" />
    <text
       id="text638">
      <tspan
         x="1244"
         y="459"
         id="tspan636">物联网</tspan>
    </text>
    <circle
       cx="1230"
       cy="453"
       r="4"
       id="circle640" />
    <text
       id="text644">
      <tspan
         x="1574"
         y="459"
         id="tspan642">数据库</tspan>
    </text>
    <circle
       cx="1560"
       cy="453"
       r="4"
       id="circle646" />
    <text
       id="text650">
      <tspan
         x="1027"
         y="562"
         id="tspan648">Swift</tspan>
    </text>
    <circle
       cx="1013"
       cy="556"
       r="4"
       id="circle652" />
    <text
       id="text656">
      <tspan
         x="1122"
         y="365"
         id="tspan654">Objective-C</tspan>
    </text>
    <circle
       cx="1108"
       cy="359"
       r="4"
       id="circle658" />
    <text
       id="text662">
      <tspan
         x="311"
         y="542"
         id="tspan660">JavaScript</tspan>
    </text>
    <circle
       cx="297"
       cy="536"
       r="4"
       id="circle664" />
    <text
       id="text668">
      <tspan
         x="273"
         y="371"
         id="tspan666">CSS</tspan>
    </text>
    <circle
       cx="259"
       cy="365"
       r="4"
       id="circle670" />
    <text
       id="text674">
      <tspan
         x="144"
         y="370"
         id="tspan672">HTML</tspan>
    </text>
    <circle
       cx="130"
       cy="364"
       r="4"
       id="circle676" />
    <text
       id="text680">
      <tspan
         x="562"
         y="562"
         id="tspan678">Python</tspan>
    </text>
    <circle
       cx="548"
       cy="556"
       r="4"
       id="circle682" />
    <text
       id="text686">
      <tspan
         x="1333"
         y="572"
         id="tspan684">C++</tspan>
    </text>
    <circle
       cx="1319"
       cy="566"
       r="4"
       id="circle688" />
    <text
       id="text692">
      <tspan
         x="635"
         y="373"
         id="tspan690">PHP</tspan>
    </text>
    <circle
       cx="621"
       cy="367"
       r="4"
       id="circle694" />
    <text
       id="text698">
      <tspan
         x="430"
         y="316"
         id="tspan696">Docker</tspan>
    </text>
    <circle
       cx="416"
       cy="310"
       r="4"
       id="circle700" />
    <text
       id="text704">
      <tspan
         x="376"
         y="271"
         id="tspan702">Kubernetes</tspan>
    </text>
    <circle
       cx="362"
       cy="265"
       r="4"
       id="circle706" />
    <text
       id="text710">
      <tspan
         x="556"
         y="315"
         id="tspan708">Nginx</tspan>
    </text>
    <circle
       cx="542"
       cy="309"
       r="4"
       id="circle712" />
    <text
       id="text716">
      <tspan
         x="550"
         y="261"
         id="tspan714">Apache</tspan>
    </text>
    <circle
       cx="536"
       cy="255"
       r="4"
       id="circle718" />
    <text
       id="text722">
      <tspan
         x="668"
         y="620"
         id="tspan720">Flask</tspan>
    </text>
    <circle
       cx="654"
       cy="614"
       r="4"
       id="circle724" />
    <text
       id="text728">
      <tspan
         x="607"
         y="674"
         id="tspan726">Django</tspan>
    </text>
    <circle
       cx="593"
       cy="668"
       r="4"
       id="circle730" />
    <text
       id="text734">
      <tspan
         x="807"
         y="379"
         id="tspan732">机器学习</tspan>
    </text>
    <circle
       cx="793"
       cy="373"
       r="4"
       id="circle736" />
    <text
       id="text740">
      <tspan
         x="754"
         y="579"
         id="tspan738">Turi Create</tspan>
    </text>
    <circle
       cx="740"
       cy="573"
       r="4"
       id="circle742" />
    <text
       id="text746">
      <tspan
         x="867"
         y="540"
         id="tspan744">Create ML</tspan>
    </text>
    <circle
       cx="853"
       cy="534"
       r="4"
       id="circle748" />
    <text
       id="text752">
      <tspan
         x="1508"
         y="370"
         id="tspan750">缓存策略</tspan>
    </text>
    <circle
       cx="1494"
       cy="364"
       r="4"
       id="circle754" />
    <text
       id="text758">
      <tspan
         x="791"
         y="260"
         id="tspan756">图像分类</tspan>
    </text>
    <circle
       cx="777"
       cy="254"
       r="4"
       id="circle760" />
    <text
       id="text764">
      <tspan
         x="870"
         y="202"
         id="tspan762">图像识别</tspan>
    </text>
    <circle
       cx="856"
       cy="196"
       r="4"
       id="circle766" />
    <text
       id="text770">
      <tspan
         x="914"
         y="312"
         id="tspan768">TensorFlow</tspan>
    </text>
    <circle
       cx="900"
       cy="306"
       r="4"
       id="circle772" />
    <text
       id="text782">
      <tspan
         x="652"
         y="311"
         id="tspan780">WordPress</tspan>
    </text>
    <circle
       cx="638"
       cy="305"
       r="4"
       id="circle784" />
    <text
       id="text788">
      <tspan
         x="1173"
         y="574"
         id="tspan786">HomeKit</tspan>
    </text>
    <circle
       cx="1159"
       cy="568"
       r="4"
       id="circle790" />
    <text
       id="text794">
      <tspan
         x="939"
         y="608"
         id="tspan792">MLKit</tspan>
    </text>
    <circle
       cx="925"
       cy="602"
       r="4"
       id="circle796" />
    <text
       id="text800">
      <tspan
         x="1075"
         y="615"
         id="tspan798">UIKit</tspan>
    </text>
    <circle
       cx="1061"
       cy="609"
       r="4"
       id="circle802" />
    <text
       id="text806">
      <tspan
         x="760"
         y="698"
         id="tspan804">Mapbox</tspan>
    </text>
    <circle
       cx="746"
       cy="692"
       r="4"
       id="circle808" />
    <text
       id="text812">
      <tspan
         x="1495"
         y="745"
         id="tspan810">SQLAlchemy</tspan>
    </text>
    <circle
       cx="1481"
       cy="739"
       r="4"
       id="circle814" />
    <text
       id="text818"
       x="-155.77209"
       y="-134.36829">
      <tspan
         x="130.22791"
         y="490.63171"
         id="tspan816">Vue</tspan>
    </text>
    <ellipse
       cx="148.72998"
       cy="475.51529"
       id="circle820"
       r="4" />
    <text
       id="text824">
      <tspan
         x="216"
         y="663"
         id="tspan822">D3.js</tspan>
    </text>
    <circle
       cx="202"
       cy="657"
       r="4"
       id="circle826" />
    <text
       id="text830">
      <tspan
         x="196"
         y="316"
         id="tspan828">SCSS</tspan>
    </text>
    <circle
       cx="182"
       cy="310"
       r="4"
       id="circle832" />
    <text
       id="text836">
      <tspan
         x="286"
         y="314"
         id="tspan834">LESS</tspan>
    </text>
    <circle
       cx="272"
       cy="308"
       r="4"
       id="circle838" />
    <text
       id="text842">
      <tspan
         x="189"
         y="255"
         id="tspan840">Bootstrap</tspan>
    </text>
    <circle
       cx="175"
       cy="249"
       r="4"
       id="circle844" />
    <text
       id="text854">
      <tspan
         x="308"
         y="775"
         id="tspan852">NPM</tspan>
    </text>
    <circle
       cx="294"
       cy="769"
       r="4"
       id="circle856" />
    <text
       id="text866">
      <tspan
         x="553"
         y="723"
         id="tspan864">PIP</tspan>
    </text>
    <circle
       cx="539"
       cy="717"
       r="4"
       id="circle868" />
    <text
       id="text872">
      <tspan
         x="1141"
         y="761"
         id="tspan870">CocoaPods</tspan>
    </text>
    <circle
       cx="1127"
       cy="755"
       r="4"
       id="circle874" />
    <text
       id="text884">
      <tspan
         x="64"
         y="689"
         id="tspan882">jQuery</tspan>
    </text>
    <circle
       cx="50"
       cy="683"
       r="4"
       id="circle886" />
    <text
       id="text890">
      <tspan
         x="78"
         y="605"
         id="tspan888">Webpack</tspan>
    </text>
    <circle
       cx="64"
       cy="599"
       r="4"
       id="circle892" />
    <text
       id="text896">
      <tspan
         x="36"
         y="643"
         id="tspan894">Babel</tspan>
    </text>
    <circle
       cx="22"
       cy="637"
       r="4"
       id="circle898" />
    <text
       id="text902">
      <tspan
         x="47"
         y="393"
         id="tspan900">SVG</tspan>
    </text>
    <circle
       cx="33"
       cy="387"
       r="4"
       id="circle904" />
    <text
       id="text914">
      <tspan
         x="1385"
         y="635"
         id="tspan912">Arduino</tspan>
    </text>
    <circle
       cx="1371"
       cy="629"
       r="4"
       id="circle916" />
    <text
       id="text920">
      <tspan
         x="1201"
         y="635"
         id="tspan918">树莓派</tspan>
    </text>
    <circle
       cx="1187"
       cy="629"
       r="4"
       id="circle922" />
    <text
       id="text926">
      <tspan
         x="1309"
         y="698"
         id="tspan924">HomeAssistant</tspan>
    </text>
    <circle
       cx="1295"
       cy="692"
       r="4"
       id="circle928" />
    <text
       id="text932">
      <tspan
         x="1784"
         y="656"
         id="tspan930">ARKit</tspan>
    </text>
    <circle
       cx="1770"
       cy="650"
       r="4"
       id="circle934" />
    <text
       id="text938">
      <tspan
         x="1740"
         y="546"
         id="tspan936">C#</tspan>
    </text>
    <circle
       cx="1726"
       cy="540"
       r="4"
       id="circle940" />
    <text
       id="text944">
      <tspan
         x="1838"
         y="585"
         id="tspan942">Unity</tspan>
    </text>
    <circle
       cx="1824"
       cy="579"
       r="4"
       id="circle946" />
    <text
       id="text950">
      <tspan
         x="1640"
         y="348"
         id="tspan948">NoSQL</tspan>
    </text>
    <circle
       cx="1626"
       cy="342"
       r="4"
       id="circle952" />
    <text
       id="text956">
      <tspan
         x="1659"
         y="258"
         id="tspan954">MongoDB</tspan>
    </text>
    <circle
       cx="1645"
       cy="252"
       r="4"
       id="circle958" />
    <text
       id="text962">
      <tspan
         x="1646"
         y="698"
         id="tspan960">Access</tspan>
    </text>
    <circle
       cx="1632"
       cy="692"
       r="4"
       id="circle964" />
    <text
       id="text968">
      <tspan
         x="1560"
         y="550"
         id="tspan966">关系型数据库</tspan>
    </text>
    <circle
       cx="1546"
       cy="544"
       r="4"
       id="circle970" />
    <text
       id="text974">
      <tspan
         x="1482"
         y="597"
         id="tspan972">MySQL</tspan>
    </text>
    <circle
       cx="1468"
       cy="591"
       r="4"
       id="circle976" />
    <text
       id="text980">
      <tspan
         x="1608"
         y="603"
         id="tspan978">PostgreSQL</tspan>
    </text>
    <circle
       cx="1594"
       cy="597"
       r="4"
       id="circle982" />
    <text
       id="text986">
      <tspan
         x="1541"
         y="664"
         id="tspan984">SQLite</tspan>
    </text>
    <circle
       cx="1527"
       cy="658"
       r="4"
       id="circle988" />
    <text
       id="text992">
      <tspan
         x="1537"
         y="291"
         id="tspan990">Redis</tspan>
    </text>
    <circle
       cx="1523"
       cy="285"
       r="4"
       id="circle994" />
    <text
       id="text998">
      <tspan
         x="1428"
         y="248"
         id="tspan996">Memcached</tspan>
    </text>
    <circle
       cx="1414"
       cy="242"
       r="4"
       id="circle1000" />
    <text
       id="text1004">
      <tspan
         x="914"
         y="682"
         id="tspan1002">MapKit</tspan>
    </text>
    <circle
       cx="900"
       cy="676"
       r="4"
       id="circle1006" />
    <text
       id="text1010">
      <tspan
         x="1046"
         y="685"
         id="tspan1008">CoreAnimation</tspan>
    </text>
    <circle
       cx="1032"
       cy="679"
       r="4"
       id="circle1012" />
    <text
       id="text1016">
      <tspan
         x="1093"
         y="308"
         id="tspan1014">CoreData</tspan>
    </text>
    <circle
       cx="1079"
       cy="302"
       r="4"
       id="circle1018" />
    <text
       id="text1022">
      <tspan
         x="1005"
         y="776"
         id="tspan1020">CloudKit</tspan>
    </text>
    <circle
       cx="991"
       cy="770"
       r="4"
       id="circle1024" />
    <text
       id="text1028">
      <tspan
         x="476"
         y="218"
         id="tspan1026">Linux</tspan>
    </text>
    <circle
       cx="462"
       cy="212"
       r="4"
       id="circle1030" />
    <text
       id="text1034">
      <tspan
         x="64"
         y="280"
         id="tspan1032">XML</tspan>
    </text>
    <circle
       cx="50"
       cy="274"
       r="4"
       id="circle1036" />
    <text
       id="text1046">
      <tspan
         x="1357"
         y="785"
         id="tspan1044">YAML</tspan>
    </text>
    <circle
       cx="1343"
       cy="779"
       r="4"
       id="circle1048" />
    <text
       id="text1052">
      <tspan
         x="1113"
         y="242"
         id="tspan1050">Git</tspan>
    </text>
    <circle
       cx="1099"
       cy="236"
       r="4"
       id="circle1054" />
    <text
       id="text1058">
      <tspan
         x="1226"
         y="292"
         id="tspan1056">AppleScript</tspan>
    </text>
    <circle
       cx="1212"
       cy="286"
       r="4"
       id="circle1060" />
    <text
       id="text1064">
      <tspan
         x="1363"
         y="177"
         id="tspan1062">Microservices</tspan>
    </text>
    <circle
       cx="1349"
       cy="171"
       r="4"
       id="circle1066" />
    <text
       id="text1070">
      <tspan
         x="1226"
         y="218"
         id="tspan1068">Serverless</tspan>
    </text>
    <circle
       cx="1212"
       cy="212"
       r="4"
       id="circle1072" />
    <text
       id="text1076">
      <tspan
         x="1323"
         y="365"
         id="tspan1074">Shell Script</tspan>
    </text>
    <circle
       cx="1309"
       cy="359"
       r="4"
       id="circle1078" />
    <text
       id="text1082">
      <tspan
         x="722"
         y="796"
         id="tspan1080">TopoJSON</tspan>
    </text>
    <circle
       cx="708"
       cy="790"
       r="4"
       id="circle1084" />
    <text
       id="text1088">
      <tspan
         x="863"
         y="753"
         id="tspan1086">GeoJSON</tspan>
    </text>
    <circle
       cx="849"
       cy="747"
       r="4"
       id="circle1090" />
    <text
       id="text1094">
      <tspan
         x="637"
         y="753"
         id="tspan1092">JSON</tspan>
    </text>
    <circle
       cx="623"
       cy="747"
       r="4"
       id="circle1096" />
    <text
       id="text1100">
      <tspan
         x="1711"
         y="766"
         id="tspan1098">Visual Basic</tspan>
    </text>
    <circle
       cx="1697"
       cy="760"
       r="4"
       id="circle1102" />
    <text
       id="text1118">
      <tspan
         x="351"
         y="723"
         id="tspan1116">TypeScript</tspan>
    </text>
    <circle
       cx="337"
       cy="717"
       r="4"
       id="circle1120" />
    <text
       id="text1124">
      <tspan
         x="388"
         y="367"
         id="tspan1122">容器化</tspan>
    </text>
    <circle
       cx="374"
       cy="361"
       r="4"
       id="circle1126" />
    <text
       xml:space="preserve"
       style="font-style:normal;font-weight:normal;font-size:40px;line-height:1.25;font-family:sans-serif;letter-spacing:0px;word-spacing:0px;fill:#000000;fill-opacity:1;stroke:none"
       x="53.812519"
       y="332.50375"
       id="text1140"><tspan
         sodipodi:role="line"
         id="tspan1138"
         x="53.812519"
         y="368.99698" /></text>
    <path
       id="circle820-8"
       r="4"
       cy="444.45914"
       cx="104.24443" />
    <text
       id="text818-2"
       x="-205.91576"
       y="-166.36023">
      <tspan
         x="80.084251"
         y="458.63977"
         id="tspan816-5">Angular</tspan>
    </text>
  </g>
</svg>
